name rise36.2859peak64.2979fall75.1499.mot
datacolumns 19
datarows 18
range 13.87160900000000 13.89994600000000
endheader
time	ground_force1_vx	ground_force1_vy	ground_force1_vz	ground_force1_px	ground_force1_py	ground_force1_pz	ground_force2_vx	ground_force2_vy	ground_force2_vz	ground_force2_px	ground_force2_py	ground_force2_pz	ground_torque1_x	ground_torque1_y	ground_torque1_z	ground_torque2_x	ground_torque2_y	ground_torque2_z	
13.87160900000000	-0.09351100000000	694.06829900000002	50.64026700000000	0.28994100000000	0.00000000000000	0.11848700000000	0.00000000000000	0.00000000000000	0.00000000000000	0.00000000000000	0.00000000000000	0.00000000000000	0.00000000000000	30.14915800000000	0.00000000000000	0.00000000000000	0.00000000000000	0.00000000000000	
13.87327700000000	-0.59954800000000	694.67097899999999	50.68889400000000	0.28900600000000	0.00000000000000	0.11849500000000	0.00000000000000	0.00000000000000	0.00000000000000	0.00000000000000	0.00000000000000	0.00000000000000	0.00000000000000	30.23953600000000	0.00000000000000	0.00000000000000	0.00000000000000	0.00000000000000	
13.87495400000000	-1.11506400000000	695.31512699999996	50.73724200000000	0.28808000000000	0.00000000000000	0.11850000000000	0.00000000000000	0.00000000000000	0.00000000000000	0.00000000000000	0.00000000000000	0.00000000000000	0.00000000000000	30.33353200000000	0.00000000000000	0.00000000000000	0.00000000000000	0.00000000000000	
13.87661800000000	-1.64016700000000	696.00022700000000	50.78504400000000	0.28716200000000	0.00000000000000	0.11850200000000	0.00000000000000	0.00000000000000	0.00000000000000	0.00000000000000	0.00000000000000	0.00000000000000	0.00000000000000	30.43096400000000	0.00000000000000	0.00000000000000	0.00000000000000	0.00000000000000	
13.87827800000000	-2.17492900000000	696.72582100000000	50.83205000000000	0.28625300000000	0.00000000000000	0.11850000000000	0.00000000000000	0.00000000000000	0.00000000000000	0.00000000000000	0.00000000000000	0.00000000000000	0.00000000000000	30.53165200000000	0.00000000000000	0.00000000000000	0.00000000000000	0.00000000000000	
13.87995000000000	-2.71938500000000	697.49151900000004	50.87803500000000	0.28535200000000	0.00000000000000	0.11849500000000	0.00000000000000	0.00000000000000	0.00000000000000	0.00000000000000	0.00000000000000	0.00000000000000	0.00000000000000	30.63541900000000	0.00000000000000	0.00000000000000	0.00000000000000	0.00000000000000	
13.88161500000000	-3.27353600000000	698.29699000000005	50.92279600000000	0.28445800000000	0.00000000000000	0.11848700000000	0.00000000000000	0.00000000000000	0.00000000000000	0.00000000000000	0.00000000000000	0.00000000000000	0.00000000000000	30.74208600000000	0.00000000000000	0.00000000000000	0.00000000000000	0.00000000000000	
13.88327900000000	-3.83734500000000	699.14196800000002	50.96615100000000	0.28357200000000	0.00000000000000	0.11847500000000	0.00000000000000	0.00000000000000	0.00000000000000	0.00000000000000	0.00000000000000	0.00000000000000	0.00000000000000	30.85148000000000	0.00000000000000	0.00000000000000	0.00000000000000	0.00000000000000	
13.88494500000000	-4.41073900000000	700.02624800000001	51.00794500000000	0.28269200000000	0.00000000000000	0.11846000000000	0.00000000000000	0.00000000000000	0.00000000000000	0.00000000000000	0.00000000000000	0.00000000000000	0.00000000000000	30.96342600000000	0.00000000000000	0.00000000000000	0.00000000000000	0.00000000000000	
13.88661300000000	-4.99360800000000	700.94968300000005	51.04804500000000	0.28181900000000	0.00000000000000	0.11844100000000	0.00000000000000	0.00000000000000	0.00000000000000	0.00000000000000	0.00000000000000	0.00000000000000	0.00000000000000	31.07775500000000	0.00000000000000	0.00000000000000	0.00000000000000	0.00000000000000	
13.88827900000000	-5.58580500000000	701.91218600000002	51.08634500000000	0.28095300000000	0.00000000000000	0.11842000000000	0.00000000000000	0.00000000000000	0.00000000000000	0.00000000000000	0.00000000000000	0.00000000000000	0.00000000000000	31.19429700000000	0.00000000000000	0.00000000000000	0.00000000000000	0.00000000000000	
13.88994300000000	-6.18714700000000	702.91372200000001	51.12276200000000	0.28009200000000	0.00000000000000	0.11839400000000	0.00000000000000	0.00000000000000	0.00000000000000	0.00000000000000	0.00000000000000	0.00000000000000	0.00000000000000	31.31288700000000	0.00000000000000	0.00000000000000	0.00000000000000	0.00000000000000	
13.89161600000000	-6.79741500000000	703.95430799999997	51.15724000000000	0.27923700000000	0.00000000000000	0.11836600000000	0.00000000000000	0.00000000000000	0.00000000000000	0.00000000000000	0.00000000000000	0.00000000000000	0.00000000000000	31.43336100000000	0.00000000000000	0.00000000000000	0.00000000000000	0.00000000000000	
13.89328000000000	-7.41635500000000	705.03400699999997	51.18974900000000	0.27838700000000	0.00000000000000	0.11833400000000	0.00000000000000	0.00000000000000	0.00000000000000	0.00000000000000	0.00000000000000	0.00000000000000	0.00000000000000	31.55555900000000	0.00000000000000	0.00000000000000	0.00000000000000	0.00000000000000	
13.89494400000000	-8.04367600000000	706.15292699999998	51.22028300000000	0.27754200000000	0.00000000000000	0.11829900000000	0.00000000000000	0.00000000000000	0.00000000000000	0.00000000000000	0.00000000000000	0.00000000000000	0.00000000000000	31.67932300000000	0.00000000000000	0.00000000000000	0.00000000000000	0.00000000000000	
13.89661800000000	-8.67905600000000	707.31120999999996	51.24886400000000	0.27670100000000	0.00000000000000	0.11826100000000	0.00000000000000	0.00000000000000	0.00000000000000	0.00000000000000	0.00000000000000	0.00000000000000	0.00000000000000	31.80449900000000	0.00000000000000	0.00000000000000	0.00000000000000	0.00000000000000	
13.89828300000000	-9.32213900000000	708.50903200000005	51.27553600000000	0.27586500000000	0.00000000000000	0.11821900000000	0.00000000000000	0.00000000000000	0.00000000000000	0.00000000000000	0.00000000000000	0.00000000000000	0.00000000000000	31.93093500000000	0.00000000000000	0.00000000000000	0.00000000000000	0.00000000000000	
13.89994600000000	-9.97253500000000	709.74659399999996	51.30037200000000	0.27503300000000	0.00000000000000	0.11817400000000	0.00000000000000	0.00000000000000	0.00000000000000	0.00000000000000	0.00000000000000	0.00000000000000	0.00000000000000	32.05848300000000	0.00000000000000	0.00000000000000	0.00000000000000	0.00000000000000	
